<svg height="511pt" viewBox="-29 1 511 511.99896" width="511pt" xmlns="http://www.w3.org/2000/svg"><g fill="#bacbec"><path d="m227.746094 36.128906c-4.273438 0-7.738282 3.464844-7.738282 7.734375v90.050781c0 4.273438 3.464844 7.734376 7.738282 7.734376 4.269531 0 7.734375-3.460938 7.734375-7.734376v-90.050781c0-4.269531-3.464844-7.734375-7.734375-7.734375zm0 0"/><path d="m129.148438 189.574219-78.425782-45.660157c-3.699218-2.136718-8.429687-.867187-10.566406 2.832032-2.136719 3.699218-.867188 8.433594 2.832031 10.566406l78.421875 45.660156c1.21875.703125 2.550782 1.035156 3.863282 1.035156 2.671874 0 5.273437-1.386718 6.707031-3.867187 2.132812-3.703125.867187-8.433594-2.832031-10.566406zm0 0"/><path d="m111.15625 312.671875-66.964844 38.746094c-3.699218 2.136719-4.96875 6.867187-2.832031 10.570312 1.433594 2.480469 4.03125 3.867188 6.707031 3.867188 1.3125 0 2.640625-.335938 3.859375-1.039063l66.96875-38.746094c3.699219-2.136718 4.964844-6.867187 2.828125-10.566406-2.132812-3.703125-6.863281-4.96875-10.566406-2.832031zm0 0"/><path d="m225.773438 368.5c-4.273438 0-7.738282 3.460938-7.738282 7.734375v87.601563c0 4.273437 3.464844 7.738281 7.738282 7.738281 4.269531 0 7.734374-3.464844 7.734374-7.738281v-87.601563c0-4.273437-3.464843-7.734375-7.734374-7.734375zm0 0"/><path d="m411.386719 355.363281-73.527344-43.011719c-3.703125-2.136718-8.429687-.871093-10.566406 2.832032-2.136719 3.699218-.871094 8.429687 2.832031 10.566406l73.527344 43.011719c1.21875.703125 2.546875 1.039062 3.859375 1.039062 2.675781 0 5.273437-1.390625 6.707031-3.871093 2.136719-3.699219.871094-8.429688-2.832031-10.566407zm0 0"/><path d="m333.21875 203.414062c1.3125 0 2.640625-.332031 3.859375-1.035156l78.953125-45.398437c3.699219-2.136719 4.964844-6.867188 2.828125-10.566407-2.136719-3.699218-6.867187-4.96875-10.566406-2.832031l-78.949219 45.398438c-3.703125 2.136719-4.96875 6.867187-2.832031 10.566406 1.433593 2.480469 4.03125 3.867187 6.707031 3.867187zm0 0"/></g><path d="m276.578125 388.230469c-11.316406 4.261719-22.835937 6.984375-34.316406 8.261719-62.683594 6.953124-124.488281-28.960938-147.734375-90.671876-27.519532-73.039062 9.382812-154.542968 82.410156-182.054687 21.546875-8.117187 43.839844-10.632813 65.261719-8.261719 51.171875 5.664063 97.398437 39.207032 116.792969 90.675782 27.515624 73.039062-9.386719 154.542968-82.414063 182.050781zm0 0" fill="#6990d7"/><path d="m276.578125 388.230469c-11.316406 4.261719-22.835937 6.984375-34.316406 8.261719-51.171875-5.660157-97.402344-39.203126-116.792969-90.671876-27.519531-73.039062 9.386719-154.542968 82.414062-182.054687 11.316407-4.257813 22.835938-6.980469 34.316407-8.261719 51.171875 5.664063 97.398437 39.207032 116.792969 90.675782 27.515624 73.039062-9.386719 154.542968-82.414063 182.050781zm0 0" fill="#91aee2"/><path d="m258.078125 30.335938c0 16.75-13.578125 30.332031-30.332031 30.332031s-30.335938-13.582031-30.335938-30.332031c0-16.753907 13.582032-30.335938 30.335938-30.335938s30.332031 13.582031 30.332031 30.335938zm0 0" fill="#91aee2"/><path d="m62.152344 142.3125c0 16.753906-13.578125 30.335938-30.332032 30.335938-16.753906 0-30.335937-13.582032-30.335937-30.335938s13.582031-30.332031 30.335937-30.332031c16.753907 0 30.332032 13.578125 30.332032 30.332031zm0 0" fill="#4172cc"/><path d="m61.167969 367.976562c0 16.753907-13.582031 30.335938-30.335938 30.335938-16.75 0-30.332031-13.582031-30.332031-30.335938 0-16.75 13.582031-30.332031 30.332031-30.332031 16.753907 0 30.335938 13.582031 30.335938 30.332031zm0 0" fill="#91aee2"/><path d="m256.105469 481.664062c0 16.753907-13.582031 30.335938-30.332031 30.335938-16.753907 0-30.335938-13.582031-30.335938-30.335938 0-16.753906 13.582031-30.332031 30.335938-30.332031 16.75 0 30.332031 13.578125 30.332031 30.332031zm0 0" fill="#4172cc"/><path d="m452.03125 369.6875c0 16.753906-13.582031 30.332031-30.332031 30.332031-16.753907 0-30.335938-13.578125-30.335938-30.332031s13.582031-30.335938 30.335938-30.335938c16.75 0 30.332031 13.582032 30.332031 30.335938zm0 0" fill="#91aee2"/><path d="m453.019531 144.023438c0 16.75-13.582031 30.332031-30.335937 30.332031s-30.332032-13.582031-30.332032-30.332031c0-16.753907 13.578126-30.335938 30.332032-30.335938s30.335937 13.582031 30.335937 30.335938zm0 0" fill="#4172cc"/><path d="m188.101562 291.332031c0 14.15625-11.476562 25.632813-25.632812 25.632813s-25.628906-11.476563-25.628906-25.632813 11.472656-25.632812 25.628906-25.632812 25.632812 11.476562 25.632812 25.632812zm0 0" fill="#e3a76f"/><path d="m316.445312 291.335938c0 14.15625-11.472656 25.632812-25.628906 25.632812s-25.632812-11.476562-25.632812-25.632812 11.476562-25.632813 25.632812-25.632813 25.628906 11.476563 25.628906 25.632813zm0 0" fill="#e3a76f"/><path d="m293.285156 190.402344v119.191406c0 30.996094-36.273437 57.046875-57.785156 64.503906-4.035156 1.394532-7.542969 2.136719-10.203125 2.136719-8.425781 0-25.421875-7.457031-40.308594-19.519531-14.894531-12.058594-27.679687-28.722656-27.679687-47.121094v-119.191406c0-12.152344 9.851562-21.996094 21.996094-21.996094h91.980468c12.152344 0 22 9.84375 22 21.996094zm0 0" fill="#e3a76f"/><path d="m293.285156 190.402344v119.191406c0 26.820312-27.160156 49.941406-48.414062 60.511719-5.886719 2.929687-12.800782 2.953125-18.6875.027343-6.683594-3.320312-13.957032-7.886718-20.78125-13.417968-14.894532-12.058594-27.683594-28.722656-27.683594-47.121094v-119.191406c0-12.152344 9.855469-21.996094 22-21.996094h71.566406c12.148438 0 22 9.847656 22 21.996094zm0 0" fill="#f2bb88"/><path d="m269.539062 291.484375c0 4.449219-3.605468 8.054687-8.054687 8.054687s-8.054687-3.605468-8.054687-8.054687 3.605468-8.054687 8.054687-8.054687 8.054687 3.605468 8.054687 8.054687zm0 0" fill="#ae583e"/><path d="m277.121094 271.796875c-.925782 0-1.867188-.253906-2.710938-.785156-6.269531-3.941407-18.542968-2.558594-22.742187-1.695313-2.761719.566406-5.460938-1.207031-6.03125-3.960937-.570313-2.757813 1.195312-5.457031 3.953125-6.03125 1.949218-.410157 19.390625-3.78125 30.25 3.046875 2.386718 1.5 3.105468 4.652344 1.605468 7.035156-.96875 1.542969-2.628906 2.390625-4.324218 2.390625zm0 0" fill="#ae583e"/><path d="m199.855469 291.484375c0 4.449219-3.605469 8.054687-8.054688 8.054687s-8.054687-3.605468-8.054687-8.054687 3.605468-8.054687 8.054687-8.054687 8.054688 3.605468 8.054688 8.054687zm0 0" fill="#ae583e"/><path d="m176.164062 271.796875c-1.695312 0-3.355468-.847656-4.324218-2.390625-1.5-2.382812-.78125-5.535156 1.601562-7.035156 10.859375-6.828125 28.300782-3.457032 30.253906-3.046875 2.761719.574219 4.53125 3.277343 3.957032 6.035156-.574219 2.757813-3.28125 4.527344-6.035156 3.957031-4.207032-.867187-16.472657-2.246094-22.742188 1.695313-.84375.53125-1.78125.785156-2.710938.785156zm0 0" fill="#ae583e"/><path d="m226.640625 343.96875c-11.355469 0-20.59375-9.238281-20.59375-20.597656 0-2.816406 2.285156-5.101563 5.101563-5.101563 2.820312 0 5.105468 2.285157 5.105468 5.101563 0 5.730468 4.660156 10.390625 10.390625 10.390625 5.726563 0 10.390625-4.660157 10.390625-10.390625 0-2.816406 2.28125-5.101563 5.101563-5.101563 2.820312 0 5.105469 2.285157 5.105469 5.101563-.003907 11.359375-9.242188 20.597656-20.601563 20.597656zm0 0" fill="#ae583e"/><path d="m303.222656 242.488281h-20.929687c-11.210938 0-20.296875-9.089843-20.296875-20.296875v-37.136718c0-11.210938 9.085937-20.296876 20.296875-20.296876h4.398437c11.210938 0 20.296875 9.085938 20.296875 20.296876v53.664062c0 2.082031-1.6875 3.769531-3.765625 3.769531zm0 0" fill="#ae583e"/><path d="m294.628906 158.261719v6.832031c0 27.636719-55.289062 81.839844-128.382812 81.371094h-12.613282c-7.089843 0-12.847656-3.972656-12.847656-8.867188v-55.3125c0-15.328125 18.058594-27.761718 40.324219-27.761718h108.113281c.808594 0 1.582032.125 2.269532.347656 1.851562.59375 3.136718 1.886718 3.136718 3.390625zm0 0" fill="#c0694e"/><path d="m291.492188 154.871094c-12.652344 28.804687-62.359376 68.859375-125.246094 68.460937h-12.613282c-7.089843 0-12.847656-3.976562-12.847656-8.867187v-32.179688c0-15.328125 18.058594-27.761718 40.324219-27.761718h108.113281c.808594 0 1.585938.125 2.269532.347656zm0 0" fill="#c97e67"/></svg>